<svg width="30" height="26" viewBox="0 0 30 26" fill="none" xmlns="http://www.w3.org/2000/svg">
<path d="M12.2652 23.8527C12.2652 24.2402 12.1453 24.619 11.9207 24.9411C11.6961 25.2633 11.3768 25.5144 11.0033 25.6626C10.6297 25.8109 10.2187 25.8497 9.82218 25.7741C9.42565 25.6985 9.06141 25.512 8.77552 25.238C8.48963 24.964 8.29494 24.6149 8.21607 24.2349C8.13719 23.8549 8.17767 23.461 8.33239 23.1031C8.48711 22.7451 8.74912 22.4391 9.08529 22.2239C9.42146 22.0086 9.81668 21.8937 10.221 21.8937C10.7631 21.8937 11.2831 22.1001 11.6665 22.4675C12.0498 22.8349 12.2652 23.3332 12.2652 23.8527ZM23.5083 21.8937C23.104 21.8937 22.7087 22.0086 22.3726 22.2239C22.0364 22.4391 21.7744 22.7451 21.6197 23.1031C21.465 23.461 21.4245 23.8549 21.5033 24.2349C21.5822 24.6149 21.7769 24.964 22.0628 25.238C22.3487 25.512 22.7129 25.6985 23.1095 25.7741C23.506 25.8497 23.917 25.8109 24.2905 25.6626C24.6641 25.5144 24.9833 25.2633 25.208 24.9411C25.4326 24.619 25.5525 24.2402 25.5525 23.8527C25.5525 23.3332 25.3371 22.8349 24.9537 22.4675C24.5704 22.1001 24.0504 21.8937 23.5083 21.8937ZM29.5961 6.50928L25.9511 17.8606C25.7602 18.4623 25.3719 18.9891 24.844 19.3627C24.316 19.7363 23.6765 19.9369 23.0202 19.9347H10.741C10.0753 19.9323 9.42835 19.7233 8.89699 19.339C8.36564 18.9548 7.97848 18.4159 7.7935 17.803L3.17106 2.3035H1.0221C0.751021 2.3035 0.491046 2.20031 0.299366 2.01661C0.107685 1.83292 0 1.58378 0 1.32399C0 1.06421 0.107685 0.815068 0.299366 0.631375C0.491046 0.447681 0.751021 0.344482 1.0221 0.344482H3.17106C3.61492 0.345893 4.04636 0.485028 4.40082 0.741059C4.75527 0.997091 5.01366 1.35625 5.13732 1.76477L6.17348 5.24204H28.6188C28.7787 5.24198 28.9364 5.2779 29.0793 5.3469C29.2221 5.41591 29.346 5.51607 29.4411 5.63934C29.5362 5.7626 29.5997 5.90553 29.6266 6.05662C29.6536 6.20772 29.6431 6.36276 29.5961 6.50928ZM27.2351 7.20106H6.75735L9.75849 17.2655C9.81954 17.4701 9.94845 17.6501 10.1257 17.7782C10.303 17.9063 10.519 17.9756 10.741 17.9757H23.0202C23.2389 17.9758 23.4519 17.9086 23.6278 17.7841C23.8037 17.6596 23.9334 17.4842 23.9976 17.2839L27.2351 7.20106Z" fill="black"/>
</svg>
