<svg width="50" height="38" viewBox="0 0 50 38" fill="none" xmlns="http://www.w3.org/2000/svg">
<path d="M16 29H0.8V0.999998H4.12V28.6H16V29ZM17.2266 15.08C17.2266 10.7333 18.3999 7.28 20.7466 4.72C23.0932 2.13333 26.0532 0.839998 29.6266 0.839998C33.3066 0.839998 36.2399 1.8 38.4266 3.72C40.8266 5.88 42.0266 9.66667 42.0266 15.08C42.0266 18.9733 41.0666 22.1467 39.1466 24.6C37.2532 27.0533 34.7732 28.52 31.7066 29C33.3866 29.3733 35.4132 30.4933 37.7866 32.36C38.6932 33.08 39.6799 33.8 40.7466 34.52C43.1466 36.12 46.0666 36.92 49.5066 36.92V37.32C44.6532 37.32 40.8799 36.7867 38.1866 35.72C35.9199 34.7867 34.2799 33.6667 33.2666 32.36C32.8132 31.7733 32.3999 31.24 32.0266 30.76C31.6799 30.3067 31.3199 29.92 30.9466 29.6C30.5732 29.3067 30.1332 29.16 29.6266 29.16C27.7599 29.16 26.1199 28.9467 24.7066 28.52C23.2932 28.0933 21.9999 27.3733 20.8266 26.36C18.4266 24.2533 17.2266 20.4933 17.2266 15.08ZM20.5466 15C20.5466 24.1733 23.5732 28.76 29.6266 28.76C32.2399 28.76 34.3999 27.5333 36.1066 25.08C37.8399 22.6267 38.7066 19.2667 38.7066 15C38.7066 5.82667 35.6799 1.24 29.6266 1.24C27.0132 1.24 24.8399 2.46667 23.1066 4.92C21.3999 7.37333 20.5466 10.7333 20.5466 15Z" fill="black"/>
</svg>
