<svg xmlns="http://www.w3.org/2000/svg" width="512" height="512" viewBox="0 0 512 512" version="1.1">
    <path d="" stroke="none" fill="#080404" fill-rule="evenodd"/>
    <path d="M 135 33.025 C 110.847 36.358, 87.720 45.126, 67 58.804 C 55.264 66.552, 34.357 87.634, 26.147 100 C 8.950 125.902, 0 155.177, 0 185.527 C 0 201.874, 1.157 210.589, 5.625 227.896 C 11.141 249.262, 17.382 263.936, 28.810 282.417 C 52.623 320.922, 101.422 370.840, 160 416.613 C 192.513 442.018, 242.883 477.041, 249.585 478.902 C 259.176 481.565, 263.018 480.050, 285.913 464.584 C 387.768 395.779, 464.102 322.391, 492.528 265.944 C 500.374 250.364, 509.178 222.153, 510.681 207.779 C 511.017 204.567, 511.676 201.700, 512.146 201.410 C 512.616 201.120, 512.993 193.596, 512.985 184.691 C 512.974 173.868, 512.648 168.997, 512 170 C 511.267 171.134, 511.027 170.683, 511.015 168.157 C 511.007 166.318, 510.097 160.384, 508.994 154.969 C 498.923 105.553, 463.103 62.553, 416 43.335 C 383.805 30.199, 346.179 28.569, 312.995 38.873 C 293.155 45.033, 278.743 52.613, 261.750 65.825 L 256 70.295 250.250 65.818 C 229.796 49.892, 205.577 38.840, 181.500 34.443 C 171.049 32.534, 144.438 31.723, 135 33.025 M 134.933 77.497 C 105.500 83.365, 80.306 99.314, 64.194 122.278 C 50.751 141.438, 43.873 162.993, 43.860 186 C 43.844 215.614, 54.190 244.343, 75.371 273.500 C 106.659 316.569, 169.849 373.111, 241.751 422.376 L 256.002 432.140 270.070 422.522 C 323.318 386.119, 378.988 339.544, 409.944 305.500 C 441.420 270.884, 455.331 248.800, 462.856 221.500 C 467.178 205.821, 468 200.217, 468 186.426 C 468 155.764, 456.330 128.073, 434.625 107.235 C 414.351 87.772, 390.786 77.562, 363.169 76.276 C 342.941 75.334, 325.383 79.083, 307.615 88.136 C 296.698 93.698, 290.359 98.511, 277.458 111.030 C 267.515 120.678, 265.901 121.856, 261.243 122.855 C 251.097 125.030, 246.846 123.027, 233 109.546 C 227.225 103.923, 219.785 97.499, 216.466 95.271 C 203.216 86.373, 187.805 80.104, 172.612 77.430 C 162.717 75.689, 143.835 75.722, 134.933 77.497 M 0.407 186 C 0.407 195.075, 0.559 198.787, 0.744 194.250 C 0.929 189.713, 0.929 182.287, 0.744 177.750 C 0.559 173.213, 0.407 176.925, 0.407 186" stroke="none" fill="#040404" fill-rule="evenodd"/>
</svg>
