<svg xmlns="http://www.w3.org/2000/svg" width="20" height="20" viewBox="0 0 512 512">
    <path d="M 77.500 2.376 C 61.877 7.480, 51.957 14.756, 29.195 37.807 C 12.629 54.584, 10.522 57.112, 7.011 64.423 C 1.901 75.064, 0 84.869, -0 100.589 C -0 173.419, 56.904 276.818, 146.043 365.957 C 225.640 445.553, 315.389 499.003, 388.619 510.422 C 401.689 512.460, 421.793 512.466, 431.792 510.434 C 436.031 509.573, 443.100 507.115, 447.500 504.972 C 454.254 501.683, 457.802 498.872, 470.278 486.924 C 501.813 456.726, 512 439.905, 512 418.032 C 512 397.150, 499.193 377.116, 472 355.459 C 441.882 331.474, 414.973 320.170, 394.797 323.029 C 379.912 325.138, 369.765 331.494, 348.768 351.861 C 337.978 362.327, 336.673 363.283, 332.528 363.750 C 323.627 364.753, 306.904 357.246, 288.500 343.985 C 253.679 318.896, 199.461 265.326, 171.991 228.869 C 154.638 205.838, 146.028 186.992, 148.451 177.338 C 148.822 175.860, 153.724 169.891, 159.345 164.075 C 180.942 141.725, 186.813 132.439, 188.968 117.220 C 191.908 96.459, 180.604 70.070, 155.196 38.382 C 140.394 19.922, 125.464 8.021, 110.630 2.857 C 99.936 -0.866, 87.956 -1.040, 77.500 2.376 M 80.263 20.422 C 70.289 24.127, 63.688 29.299, 43.800 48.987 C 23.233 69.349, 21.171 72.372, 18.918 85.464 C 17.295 94.900, 18.310 116.775, 20.976 129.835 C 29.825 173.166, 55.123 225.170, 91.839 275.500 C 142.810 345.373, 215.014 411.469, 283.654 451.089 C 297.513 459.088, 324.773 472.426, 338 477.679 C 378.706 493.844, 418.767 498.478, 439 489.362 C 446.447 486.006, 478.402 454.178, 485.832 442.715 C 502.755 416.607, 493.773 394.151, 454.720 364.930 C 420.932 339.649, 399.643 334.829, 380.360 348.096 C 377.718 349.914, 369.512 357.217, 362.125 364.325 C 347.756 378.150, 343.580 380.775, 334.458 381.717 C 308.720 384.373, 265.739 355.310, 207.500 295.871 C 161.224 248.642, 137.515 216.287, 131.400 192.020 C 129.248 183.482, 129.888 173.054, 132.927 167.124 C 134.160 164.717, 140.965 156.764, 148.048 149.450 C 166.672 130.221, 171 122.573, 171 108.891 C 171 95.435, 163.495 79.235, 147.118 57.341 C 122.032 23.803, 101.571 12.505, 80.263 20.422" stroke="none" fill-rule="evenodd"/>
</svg>
