<svg width="19" height="18" viewBox="0 0 19 18" fill="none" xmlns="http://www.w3.org/2000/svg">
<path d="M9.875 0.0625C8.10733 0.0625 6.37936 0.586675 4.9096 1.56874C3.43983 2.55081 2.29429 3.94665 1.61783 5.57977C0.941372 7.21288 0.76438 9.00992 1.10924 10.7436C1.45409 12.4773 2.30531 14.0698 3.55524 15.3198C4.80517 16.5697 6.39768 17.4209 8.13138 17.7658C9.86509 18.1106 11.6621 17.9336 13.2952 17.2572C14.9284 16.5807 16.3242 15.4352 17.3063 13.9654C18.2883 12.4956 18.8125 10.7677 18.8125 9C18.81 6.6304 17.8676 4.35856 16.192 2.683C14.5164 1.00743 12.2446 0.0650023 9.875 0.0625ZM10.5625 16.5307V11.0625H12.625C12.8073 11.0625 12.9822 10.9901 13.1111 10.8611C13.2401 10.7322 13.3125 10.5573 13.3125 10.375C13.3125 10.1927 13.2401 10.0178 13.1111 9.88886C12.9822 9.75993 12.8073 9.6875 12.625 9.6875H10.5625V7.625C10.5625 7.26033 10.7074 6.91059 10.9652 6.65273C11.2231 6.39487 11.5728 6.25 11.9375 6.25H13.3125C13.4948 6.25 13.6697 6.17757 13.7986 6.04864C13.9276 5.9197 14 5.74484 14 5.5625C14 5.38016 13.9276 5.2053 13.7986 5.07636C13.6697 4.94743 13.4948 4.875 13.3125 4.875H11.9375C11.2082 4.875 10.5087 5.16473 9.99296 5.68046C9.47724 6.19618 9.1875 6.89565 9.1875 7.625V9.6875H7.125C6.94267 9.6875 6.7678 9.75993 6.63887 9.88886C6.50994 10.0178 6.4375 10.1927 6.4375 10.375C6.4375 10.5573 6.50994 10.7322 6.63887 10.8611C6.7678 10.9901 6.94267 11.0625 7.125 11.0625H9.1875V16.5307C7.24944 16.3538 5.45417 15.4365 4.17515 13.9697C2.89612 12.5029 2.23178 10.5995 2.32034 8.65541C2.40889 6.7113 3.24351 4.87616 4.65059 3.53172C6.05766 2.18727 7.92888 1.43702 9.875 1.43702C11.8211 1.43702 13.6923 2.18727 15.0994 3.53172C16.5065 4.87616 17.3411 6.7113 17.4297 8.65541C17.5182 10.5995 16.8539 12.5029 15.5749 13.9697C14.2958 15.4365 12.5006 16.3538 10.5625 16.5307Z" fill="black"/>
</svg>
