<svg width="18" height="18" viewBox="0 0 18 18" fill="none" xmlns="http://www.w3.org/2000/svg">
<path d="M8.9375 4.875C8.12165 4.875 7.32413 5.11693 6.64577 5.57019C5.96742 6.02345 5.43871 6.66769 5.1265 7.42143C4.81429 8.17518 4.7326 9.00458 4.89176 9.80475C5.05093 10.6049 5.44379 11.3399 6.02068 11.9168C6.59758 12.4937 7.33258 12.8866 8.13275 13.0457C8.93292 13.2049 9.76232 13.1232 10.5161 12.811C11.2698 12.4988 11.9141 11.9701 12.3673 11.2917C12.8206 10.6134 13.0625 9.81585 13.0625 9C13.0614 7.90633 12.6264 6.85778 11.8531 6.08444C11.0797 5.3111 10.0312 4.87614 8.9375 4.875ZM8.9375 11.75C8.3936 11.75 7.86192 11.5887 7.40968 11.2865C6.95745 10.9844 6.60497 10.5549 6.39683 10.0524C6.18869 9.54988 6.13423 8.99695 6.24034 8.4635C6.34645 7.93005 6.60836 7.44005 6.99296 7.05546C7.37755 6.67086 7.86755 6.40895 8.401 6.30284C8.93445 6.19673 9.48738 6.25119 9.98988 6.45933C10.4924 6.66747 10.9219 7.01995 11.224 7.47218C11.5262 7.92442 11.6875 8.4561 11.6875 9C11.6875 9.72935 11.3978 10.4288 10.882 10.9445C10.3663 11.4603 9.66685 11.75 8.9375 11.75ZM13.0625 0.0625H4.8125C3.53656 0.0638649 2.31328 0.571333 1.41106 1.47356C0.508833 2.37578 0.00136488 3.59906 0 4.875V13.125C0.00136488 14.4009 0.508833 15.6242 1.41106 16.5264C2.31328 17.4287 3.53656 17.9361 4.8125 17.9375H13.0625C14.3384 17.9361 15.5617 17.4287 16.4639 16.5264C17.3662 15.6242 17.8736 14.4009 17.875 13.125V4.875C17.8736 3.59906 17.3662 2.37578 16.4639 1.47356C15.5617 0.571333 14.3384 0.0638649 13.0625 0.0625ZM16.5 13.125C16.5 14.0367 16.1378 14.911 15.4932 15.5557C14.8485 16.2003 13.9742 16.5625 13.0625 16.5625H4.8125C3.90082 16.5625 3.02648 16.2003 2.38182 15.5557C1.73716 14.911 1.375 14.0367 1.375 13.125V4.875C1.375 3.96332 1.73716 3.08898 2.38182 2.44432C3.02648 1.79966 3.90082 1.4375 4.8125 1.4375H13.0625C13.9742 1.4375 14.8485 1.79966 15.4932 2.44432C16.1378 3.08898 16.5 3.96332 16.5 4.875V13.125ZM14.4375 4.53125C14.4375 4.73521 14.377 4.93459 14.2637 5.10418C14.1504 5.27377 13.9893 5.40595 13.8009 5.484C13.6125 5.56205 13.4051 5.58248 13.2051 5.54269C13.005 5.50289 12.8213 5.40468 12.677 5.26045C12.5328 5.11623 12.4346 4.93248 12.3948 4.73244C12.355 4.53239 12.3754 4.32504 12.4535 4.13661C12.5316 3.94817 12.6637 3.78711 12.8333 3.6738C13.0029 3.56048 13.2023 3.5 13.4062 3.5C13.6798 3.5 13.9421 3.60865 14.1355 3.80205C14.3288 3.99544 14.4375 4.25775 14.4375 4.53125Z" fill="black"/>
</svg>
